<svg xmlns="http://www.w3.org/2000/svg" version="1.1" xmlns:xlink="http://www.w3.org/1999/xlink" xmlns:svgjs="http://svgjs.com/svgjs" width="260.000000pt" height="260.000000pt"><svg version="1.0" xmlns="http://www.w3.org/2000/svg" width="260.000000pt" height="260.000000pt" viewBox="0 0 260.000000 260.000000" preserveAspectRatio="xMidYMid meet">

<g transform="translate(0.000000,260.000000) scale(0.100000,-0.100000)" fill="#000000" stroke="none">
<path d="M1438 2555 c-3 -3 -18 -7 -34 -9 -42 -7 -58 -11 -69 -18 -5 -3 -26
-9 -45 -13 -33 -7 -104 -35 -200 -78 -48 -21 -194 -114 -245 -155 -112 -90
-245 -237 -336 -372 -63 -94 -66 -99 -100 -170 -17 -36 -37 -72 -44 -80 -7 -8
-22 -42 -33 -75 -11 -33 -28 -78 -37 -100 -10 -22 -17 -41 -16 -42 0 -2 1 -4
0 -5 -14 -46 -59 -244 -65 -288 -4 -25 -7 -146 -8 -270 0 -255 5 -287 75 -427
44 -88 123 -180 200 -231 l46 -31 6 567 c4 312 9 581 11 597 13 103 18 127 31
152 8 16 15 34 15 41 0 44 116 218 195 293 67 65 198 152 254 170 20 6 41 15
46 20 6 4 29 11 50 14 49 8 78 13 85 15 22 7 275 -2 275 -10 0 -1 14 -3 31 -4
40 -4 194 -77 255 -121 58 -41 69 -43 96 -12 66 70 106 202 102 332 -4 132
-46 213 -131 257 -49 24 -65 32 -108 46 -20 7 -296 13 -302 7z"></path>
<path d="M1224 1738 c-4 -5 -12 -7 -20 -4 -8 3 -14 1 -14 -4 0 -6 -10 -10 -23
-10 -43 0 -167 -97 -217 -168 -104 -152 -123 -325 -53 -499 49 -123 198 -248
326 -274 56 -12 157 -17 157 -9 0 3 17 6 38 7 60 4 176 68 242 133 80 79 130
183 145 302 15 122 -37 275 -129 375 -106 116 -204 161 -352 160 -52 0 -97 -4
-100 -9z"></path>
<path d="M2189 1221 c-68 -68 -77 -81 -83 -123 -4 -26 -7 -50 -7 -53 1 -18
-75 -193 -88 -205 -3 -3 -22 -27 -41 -55 -109 -158 -303 -288 -475 -320 -11
-2 -20 -4 -20 -5 0 -1 -34 -4 -75 -6 -41 -2 -83 -6 -92 -8 -10 -2 -18 0 -18 4
0 5 -15 8 -32 8 -101 -3 -271 57 -364 128 -17 13 -34 20 -38 17 -3 -4 -6 -124
-6 -268 0 -232 2 -264 17 -276 24 -21 351 -23 463 -2 47 8 90 16 95 17 6 2 24
6 40 10 17 4 39 12 50 17 11 5 29 11 40 14 57 12 221 91 309 150 50 33 116 87
163 133 13 12 27 22 31 22 4 0 14 9 22 20 8 12 39 47 67 78 29 31 53 60 53 64
0 4 6 13 13 20 44 46 128 213 151 298 8 30 19 68 25 84 6 16 12 67 12 115 0
106 -1 123 -14 139 -5 6 -6 12 -1 12 4 0 -3 11 -16 25 -18 19 -32 24 -64 23
-36 -1 -48 -10 -117 -77z"></path>
</g>
</svg><style>@media (prefers-color-scheme: light) { :root { filter: none; } }
</style></svg>